HIERARCHY
ROOT Hips
{
	OFFSET 0.00000 0.00000 0.00000
	CHANNELS 6 Xposition Yposition Zposition Yrotation Zrotation Xrotation 
	JOINT Lumbar
	{
		OFFSET 0 0 0
		CHANNELS 3 Zrotation Xrotation Yrotation
		JOINT Neck
		{
			OFFSET 0.00 0.2701 0.00
			CHANNELS 3 Zrotation Xrotation Yrotation
			End Site
			{
				OFFSET 0.00 0.1379 0.00
			}
		}
		JOINT RightShoulder
		{
			OFFSET 0.0119 0.2289 0.1181
			CHANNELS 3 Zrotation Xrotation Yrotation
			JOINT RightElbow
			{
				OFFSET 0.00 -0.1475 0.00
				CHANNELS 2 Zrotation Yrotation
				JOINT RightWrist
				{
					OFFSET 0.00 -0.1605 0.00
					CHANNELS 2 Zrotation Xrotation
					End Site
					{
						OFFSET 0.0040 -0.1068 0.0006
					}
				}
			}
		}
		JOINT LeftShoulder
		{
			OFFSET 0.0119 0.2289 -0.1181
			CHANNELS 3 Zrotation Xrotation Yrotation
			JOINT LeftElbow
			{
				OFFSET 0.00 -0.1475 0.00
				CHANNELS 2 Zrotation Yrotation
				JOINT LeftWrist
				{
					OFFSET 0.00 -0.1605 0.00
					CHANNELS 2 Zrotation Xrotation
					End Site
					{
						OFFSET 0.0040 -0.1068 -0.0006
					}
				}
			}
		}
	}
	JOINT RightHip
	{
		OFFSET 0.0316 -0.0424 0.0458
		CHANNELS 3 Zrotation Xrotation Yrotation
		JOINT RightKnee
		{
			OFFSET 0.00 -0.2438 0.00
			CHANNELS 1 Zrotation
			JOINT RightAnkle
			{
				OFFSET 0.00 -0.2449 0.00
				CHANNELS 3 Zrotation Xrotation Yrotation
				End Site
				{
					OFFSET 0.1237 -0.0542 0.0051
				}
			}
		}
	}
	JOINT LeftHip
	{
		OFFSET 0.0316 -0.0424 -0.0458
		CHANNELS 3 Zrotation Xrotation Yrotation
		JOINT LeftKnee
		{
			OFFSET 0.00 -0.2438 0.00
			CHANNELS 1 Zrotation
			JOINT LeftAnkle
			{
				OFFSET 0.00 -0.2449 0.00
				CHANNELS 3 Zrotation Xrotation Yrotation
				End Site
				{
					OFFSET 0.1237 -0.0542 -0.0051
				}
			}
		}
	}
}
MOTION
Frames: 23
Frame Time: 0.02
0 0.57926 0 182.98578 0 -3.0645 1.124 2.50103 -10.2646 -32.43563 6.45718 4.06335 -10.20418 -75.75151 -71.58818 21.64128 76.11413 -16.22414 -1.67786 1.27984 62.32927 65.43073 22.88087 -78.76136 -29.49535 2.67848 -2.52185 3.20265 2.11848 -7.81368 -1.74676 -3.03158 -7.83233 0.13853 3.20223 -4.60376 -8.79423 4.21582 1.27528 -0.51487
-0.00032 0.57926 -0.00015 182.98285 0 -3.05614 1.15831 2.4887 -10.25882 -32.48564 6.4571 4.06922 -10.20393 -75.78024 -71.63706 21.59976 76.10303 -16.24366 -1.67383 1.26489 62.32448 65.44208 22.89319 -78.64357 -29.50309 2.73128 -2.56063 3.2127 2.15705 -7.7949 -1.73748 -3.04518 -7.86307 0.1004 3.21035 -4.57928 -8.77569 4.21703 1.27373 -0.53207
-0.00063 0.57926 -0.0003 182.98003 0 -3.04781 1.1924 2.47642 -10.25315 -32.53532 6.45711 4.07504 -10.20365 -75.80911 -71.68581 21.55859 76.09199 -16.26345 -1.66985 1.25012 62.31961 65.45334 22.90546 -78.52703 -29.51076 2.78356 -2.59922 3.22272 2.19525 -7.77626 -1.72819 -3.05868 -7.89362 0.06262 3.21842 -4.5551 -8.75753 4.21835 1.27221 -0.54908
-0.00094 0.57926 -0.00045 182.97783 0 -3.03953 1.22589 2.46419 -10.24791 -32.5841 6.45757 4.08062 -10.20374 -75.83866 -71.73492 21.51826 76.08113 -16.28445 -1.66602 1.23585 62.31457 65.46448 22.91758 -78.41363 -29.51822 2.83461 -2.63742 3.23268 2.23242 -7.75796 -1.71887 -3.07188 -7.92391 0.02602 3.22634 -4.53203 -8.74097 4.22009 1.27075 -0.5655
-0.00127 0.57926 -0.0006 182.97258 0 -3.03096 1.2625 2.45167 -10.24042 -32.63758 6.45576 4.08733 -10.20248 -75.8644 -71.78264 21.47335 76.06935 -16.29896 -1.6614 1.21884 62.31066 65.47645 22.93043 -78.28272 -29.52678 2.89255 -2.6777 3.24296 2.2751 -7.73784 -1.70982 -3.08663 -7.95584 -0.01664 3.23504 -4.50324 -8.71624 4.21959 1.26892 -0.58507
-0.00156 0.57925 -0.00075 182.97362 0 -3.02303 1.29251 2.43976 -10.2377 -32.68111 6.45869 4.09173 -10.20364 -75.89833 -71.83289 21.43826 76.05951 -16.32727 -1.65846 1.20769 62.30421 65.48652 22.94176 -78.18959 -29.53301 2.93563 -2.71352 3.25253 2.30606 -7.72162 -1.70015 -3.09812 -7.98407 -0.04659 3.2421 -4.48647 -8.70864 4.22382 1.26788 -0.5979
-0.00176 0.57925 -0.00087 182.99419 0 -3.01672 1.30419 2.42932 -10.2485 -32.69681 6.4757 4.08897 -10.21523 -75.95531 -71.89473 21.42945 76.05527 -16.39506 -1.6602 1.21296 62.2916 65.49219 22.94881 -78.1967 -29.53269 2.93933 -2.73763 3.26045 2.30468 -7.71576 -1.68889 -3.10045 -8.00435 -0.03968 3.2446 -4.50448 -8.7513 4.24174 1.26889 -0.59218
-0.00192 0.57924 -0.00099 183.02076 0 -3.01109 1.30924 2.41953 -10.26403 -32.70252 6.49738 4.08399 -10.22853 -76.02052 -71.95825 21.43073 76.05295 -16.47653 -1.66362 1.22421 62.27619 65.49569 22.95436 -78.24255 -29.52998 2.92782 -2.75712 3.2676 2.29148 -7.71392 -1.67698 -3.09952 -8.02054 -0.02024 3.24547 -4.53434 -8.81077 4.26434 1.2707 -0.57963
-0.00209 0.57923 -0.00111 183.04318 0 -3.00526 1.31745 2.40958 -10.27719 -32.71309 6.51628 4.08061 -10.2387 -76.08181 -72.01818 21.42792 76.04965 -16.55105 -1.66628 1.23248 62.26158 65.49977 22.96068 -78.27354 -29.52853 2.92207 -2.77835 3.27491 2.28365 -7.71051 -1.66525 -3.10022 -8.03711 -0.00768 3.24714 -4.55775 -8.86067 4.2844 1.27222 -0.57013
-0.00227 0.57922 -0.00124 183.07155 0 -2.99897 1.32509 2.39905 -10.2914 -32.7224 6.53782 4.07489 -10.259 -76.14397 -72.09041 21.42292 76.04689 -16.62898 -1.66898 1.24152 62.24924 65.50599 22.96664 -78.29358 -29.52663 2.92078 -2.80115 3.28303 2.27576 -7.70601 -1.65394 -3.10032 -8.05974 0.00982 3.24858 -4.58565 -8.91868 4.30618 1.27345 -0.56084
-0.00244 0.57922 -0.00134 183.08904 0 -2.9938 1.33228 2.38989 -10.30443 -32.73185 6.55513 4.0733 -10.25834 -76.20614 -72.13696 21.425 76.04333 -16.70265 -1.67193 1.25079 62.23116 65.50671 22.97299 -78.34486 -29.52473 2.90711 -2.81954 3.28927 2.26531 -7.70476 -1.64167 -3.10085 -8.069 0.02009 3.25008 -4.60703 -8.96387 4.3255 1.27545 -0.54953
-0.00258 0.57921 -0.00141 183.0741 0 -2.99141 1.34027 2.38417 -10.31401 -32.74514 6.55822 4.08557 -10.2018 -76.2675 -72.11584 21.44315 76.03808 -16.76464 -1.6757 1.25543 62.2009 65.49728 22.98097 -78.47957 -29.5266 2.85847 -2.82712 3.2906 2.24974 -7.7113 -1.6265 -3.10366 -8.04054 0.00647 3.25239 -4.60718 -8.96867 4.33682 1.2795 -0.5339
-0.0027 0.5792 -0.00145 183.04816 0 -2.99013 1.34794 2.37981 -10.32211 -32.75869 6.55715 4.10174 -10.12361 -76.32838 -72.068 21.46829 76.03178 -16.82123 -1.67954 1.26065 62.16431 65.48162 22.98955 -78.64321 -29.52796 2.79866 -2.83037 3.29006 2.23222 -7.72101 -1.61047 -3.10696 -7.99914 -0.01471 3.25477 -4.60038 -8.96013 4.34551 1.28428 -0.51655
-0.00283 0.57919 -0.0015 183.0279 0 -2.9884 1.35549 2.37491 -10.33019 -32.77152 6.55889 4.11484 -10.05384 -76.38871 -72.03016 21.4909 76.0253 -16.87801 -1.683 1.26827 62.12878 65.46578 22.99748 -78.78917 -29.52749 2.74708 -2.83545 3.29033 2.21616 -7.7294 -1.59509 -3.10981 -7.96485 -0.03184 3.25696 -4.59698 -8.9583 4.35545 1.28864 -0.50028
-0.00297 0.57918 -0.00156 183.00506 0 -2.98646 1.36397 2.36971 -10.34116 -32.78669 6.55686 4.13323 -9.99039 -76.45253 -72.002 21.51108 76.02163 -16.94476 -1.68803 1.26545 62.10124 65.46233 23.00615 -78.95534 -29.53569 2.68209 -2.84097 3.29074 2.19712 -7.73741 -1.5786 -3.11347 -7.92517 -0.05107 3.25976 -4.59306 -8.95439 4.36531 1.29337 -0.48254
-0.00309 0.57917 -0.00159 182.98479 0 -2.98521 1.37047 2.36544 -10.34594 -32.79699 6.56167 4.14172 -9.90831 -76.50893 -71.94662 21.5379 76.01188 -16.98937 -1.68976 1.2837 62.05506 65.43195 23.01445 -79.08616 -29.52569 2.64205 -2.84458 3.2904 2.18419 -7.74694 -1.56423 -3.11564 -7.89378 -0.06793 3.26131 -4.58831 -8.95135 4.37465 1.29751 -0.46753
-0.00317 0.57917 -0.00158 182.97513 0 -2.98553 1.37187 2.36369 -10.33189 -32.79536 6.58618 4.12058 -9.7824 -76.54396 -71.82789 21.58165 75.98471 -16.97345 -1.68251 1.36602 61.9633 65.32583 23.0134 -79.10868 -29.46563 2.67849 -2.84429 3.28867 2.18689 -7.75971 -1.55596 -3.11327 -7.88765 -0.07599 3.2596 -4.58378 -8.95458 4.38319 1.29984 -0.46051
-0.00324 0.57916 -0.00154 182.96822 0 -2.98649 1.37123 2.36279 -10.31203 -32.78853 6.61772 4.08959 -9.63795 -76.57151 -71.6814 21.63226 75.95143 -16.9355 -1.6719 1.46828 61.85211 65.19331 23.01375 -79.09507 -29.38715 2.73972 -2.8422 3.2862 2.1962 -7.77392 -1.54985 -3.10946 -7.89047 -0.08154 3.25658 -4.57841 -8.95895 4.39127 1.30156 -0.45632
-0.00331 0.57916 -0.00151 182.95951 0 -2.98717 1.37137 2.36132 -10.29615 -32.78316 6.64616 4.06403 -9.50061 -76.6033 -71.5445 21.67881 75.92173 -16.90803 -1.66275 1.55751 61.74709 65.07492 23.01847 -79.10022 -29.3172 2.78633 -2.84079 3.28394 2.2037 -7.78754 -1.54274 -3.10655 -7.88976 -0.08857 3.25404 -4.57284 -8.96225 4.39951 1.30356 -0.45087
-0.00338 0.57915 -0.00148 182.95284 0 -2.98785 1.37221 2.36063 -10.27449 -32.7818 6.6741 4.03469 -9.36849 -76.63225 -71.42061 21.72743 75.8893 -16.87839 -1.65397 1.66384 61.65346 64.94765 23.00099 -79.09667 -29.24703 2.84619 -2.83987 3.28217 2.20607 -7.80092 -1.53566 -3.10266 -7.88639 -0.09443 3.25203 -4.56957 -8.96732 4.40784 1.30558 -0.44528
-0.00345 0.57915 -0.00144 182.94259 0 -2.98867 1.37101 2.35854 -10.26358 -32.77061 6.70476 4.01072 -9.22083 -76.66446 -71.26189 21.776 75.86025 -16.84813 -1.6435 1.73891 61.53111 64.83226 23.03143 -79.10206 -29.17236 2.88514 -2.83746 3.27921 2.22076 -7.81521 -1.52904 -3.10042 -7.89076 -0.10198 3.24857 -4.5613 -8.96927 4.41593 1.30741 -0.44065
-0.00351 0.57914 -0.00135 182.92283 0 -2.98967 1.36528 2.35205 -10.28319 -32.73555 6.74141 4.00498 -9.03895 -76.71415 -71.02454 21.80182 75.84894 -16.82099 -1.63005 1.72587 61.3376 64.75926 23.18337 -79.1438 -29.09571 2.85482 -2.83211 3.27341 2.26764 -7.8308 -1.52313 -3.10335 -7.91519 -0.11517 3.24162 -4.54013 -8.96143 4.42332 1.30881 -0.43821
-0.00355 0.57913 -0.00125 182.89918 0 -2.99079 1.35742 2.34417 -10.31397 -32.69038 6.7805 4.00475 -8.84102 -76.76543 -70.74976 21.83286 75.83967 -16.79387 -1.61477 1.68016 61.11485 64.69826 23.38621 -79.19589 -29.01459 2.80368 -2.82519 3.26639 2.32678 -7.84741 -1.51758 -3.10794 -7.947 -0.13004 3.2332 -4.51383 -8.9506 4.43051 1.31006 -0.43658
